<svg width="115" height="40" viewBox="0 0 115 40" fill="none" xmlns="http://www.w3.org/2000/svg">
<g clip-path="url(#clip0_6_630)">
<path d="M25.9567 21.1485C25.4722 22.5534 25.0414 23.7974 24.6155 25.0429C23.8367 27.3194 23.071 29.6008 22.2663 31.8675C22.1785 32.1131 21.8826 32.4627 21.681 32.4643C18.4344 32.5017 15.1895 32.4903 11.8047 32.4903C12.151 31.4659 12.4599 30.5325 12.7818 29.604C15.1716 22.7339 17.5695 15.8671 19.948 8.99208C20.1138 8.51565 20.33 8.32052 20.8633 8.32377C24.4919 8.34979 28.1222 8.34491 31.7508 8.32865C32.2158 8.32702 32.4694 8.43434 32.6401 8.91403C35.3664 16.5842 38.1139 24.2462 40.8549 31.9114C40.9086 32.061 40.9346 32.2204 40.9931 32.4529C40.6842 32.4692 40.4257 32.4936 40.1672 32.4936C37.0263 32.4968 33.8838 32.4773 30.7429 32.5098C30.1413 32.5163 29.9056 32.3017 29.7186 31.7586C28.592 28.4853 27.4296 25.2251 26.277 21.9599C26.2006 21.7437 26.1095 21.5339 25.9567 21.1469V21.1485ZM26.0461 21.0526C24.6984 17.2899 23.3767 13.5955 21.9769 9.68804C20.6129 13.6215 19.3367 17.3029 18.0361 21.0526H26.0445H26.0461Z" fill="#1A4FFF"/>
</g>
<path d="M92.51 30.891C91.1032 31.7941 89.6583 32.2456 88.1754 32.2456C86.5974 32.2456 85.2048 31.9081 83.9976 31.2332C82.7999 30.5488 81.8588 29.6125 81.1744 28.4243C80.4994 27.2265 80.162 25.8577 80.162 24.3177C80.162 22.6352 80.4947 21.1713 81.1601 19.926C81.8255 18.6808 82.7428 17.7159 83.912 17.0315C85.0813 16.3376 86.4263 15.9906 87.9473 15.9906C89.5632 15.9906 90.9368 16.3709 92.068 17.1313C93.1992 17.8918 94.0357 18.9612 94.5776 20.3395C95.1194 21.7179 95.3095 23.3386 95.1479 25.2018H91.3123V23.7759C91.3123 22.2074 91.0604 21.081 90.5566 20.3966C90.0623 19.7027 89.2496 19.3557 88.1184 19.3557C86.7971 19.3557 85.8227 19.7597 85.1953 20.5677C84.5774 21.3662 84.2685 22.5497 84.2685 24.1181C84.2685 25.5535 84.5774 26.6657 85.1953 27.4547C85.8227 28.2341 86.74 28.6239 87.9473 28.6239C88.7077 28.6239 89.3589 28.4575 89.9007 28.1248C90.4425 27.7921 90.856 27.3121 91.1412 26.6847H95.2049C94.8247 28.5858 93.9264 29.988 92.51 30.891ZM93.28 22.3215V25.2018H83.0708V22.3215H84.297L84.1687 23.6333H84.625C84.6725 23.2056 84.8531 22.8824 85.1668 22.6637C85.4805 22.4356 85.9035 22.3215 86.4358 22.3215H93.28Z" fill="white"/>
<path d="M76.1731 30.891C75.0324 31.7941 73.4544 32.2456 71.4392 32.2456C69.5 32.2456 67.9316 31.8083 66.7338 30.9338C65.5456 30.0497 64.7994 28.6049 64.4952 26.5991H68.5304C68.692 27.3216 69.0485 27.8872 69.5998 28.2959C70.1607 28.7047 70.8689 28.909 71.7244 28.909C72.4278 28.909 72.9696 28.776 73.3499 28.5098C73.7301 28.2341 73.9202 27.8539 73.9202 27.3691C73.9202 27.0649 73.8442 26.8225 73.6921 26.6419C73.54 26.4518 73.1978 26.2664 72.6655 26.0858C72.1426 25.9052 71.3251 25.6676 70.213 25.3729C68.9582 25.0497 67.9553 24.6885 67.2044 24.2892C66.4534 23.89 65.9116 23.4147 65.5789 22.8633C65.2462 22.3025 65.0798 21.6276 65.0798 20.8386C65.0798 19.85 65.3317 18.9945 65.8355 18.272C66.3393 17.5401 67.0475 16.9792 67.9601 16.5895C68.8821 16.1903 69.9658 15.9906 71.2111 15.9906C72.4183 15.9906 73.4877 16.176 74.4193 16.5467C75.3509 16.9175 76.1018 17.445 76.6722 18.1294C77.252 18.8139 77.6132 19.8595 77.7558 21.2664H73.7776C73.7111 20.696 73.4639 20.2445 73.0362 19.9118C72.6084 19.5791 72.0286 19.3842 71.2966 19.3272C70.5837 19.2797 70.0086 19.3747 69.5713 19.6124C69.1436 19.85 68.9297 20.1922 68.9297 20.639C68.9297 20.9051 69.02 21.1285 69.2006 21.3091C69.3907 21.4898 69.7757 21.6751 70.3555 21.8652C70.9449 22.0554 71.8385 22.3025 73.0362 22.6067C74.2054 22.9109 75.1417 23.2673 75.8452 23.6761C76.5581 24.0753 77.0762 24.5601 77.3994 25.1305C77.7226 25.6913 77.8842 26.371 77.8842 27.1695C77.8842 28.7474 77.3138 29.988 76.1731 30.891Z" fill="white"/>
<path d="M61.1471 10.8575V14.2796H57.2687V10.8575H61.1471ZM61.1471 16.4184V31.8179H57.2687V16.4184H61.1471Z" fill="white"/>
<path d="M49.1526 22.8917L49.1383 31.8176H45.2314V16.4182H48.6535V17.1026C48.6535 17.5589 48.606 18.0199 48.511 18.4857C48.4159 18.942 48.2781 19.5076 48.0975 20.1825H48.4254C48.9292 18.7471 49.3237 17.8251 49.6089 17.4163C49.9036 17.0076 50.2505 16.7319 50.6498 16.5893C51.049 16.4467 51.5243 16.3754 52.0756 16.3754H54.2715V19.9401L51.7334 19.9544C50.7733 19.9449 50.1032 20.1445 49.7229 20.5532C49.3047 21 49.1146 21.7795 49.1526 22.8917Z" fill="white"/>
<path d="M103.307 8.1568V14.1616H102.173V8.1568H103.307Z" fill="#A7ADBE"/>
<path d="M99.7577 13.9948C99.3908 14.1894 98.9654 14.2867 98.4817 14.2867C97.998 14.2867 97.5726 14.1894 97.2057 13.9948C96.8387 13.7974 96.5524 13.5208 96.3467 13.165C96.1409 12.8091 96.0381 12.3907 96.0381 11.9098V8.16514L97.189 8.1568V11.9015C97.189 12.0988 97.2224 12.2782 97.2891 12.4394C97.3558 12.6006 97.4475 12.7396 97.5643 12.8564C97.6838 12.9732 97.8215 13.0635 97.9771 13.1274C98.1356 13.1886 98.3038 13.2192 98.4817 13.2192C98.6652 13.2192 98.8348 13.1872 98.9905 13.1233C99.1489 13.0593 99.2865 12.969 99.4033 12.8522C99.52 12.7355 99.6104 12.5965 99.6743 12.4352C99.7411 12.274 99.7744 12.0961 99.7744 11.9015V8.1568H100.925V11.9098C100.925 12.3907 100.822 12.8091 100.617 13.165C100.411 13.5208 100.125 13.7974 99.7577 13.9948Z" fill="#A7ADBE"/>
<defs>
<clipPath id="clip0_6_630">
<rect width="29.1901" height="24.186" fill="white" transform="translate(11.8047 8.32397)"/>
</clipPath>
</defs>
</svg>
